<svg xmlns="http://www.w3.org/2000/svg" width="26" height="26" viewBox="0 0 26 26" fill="none">
  <g filter="url(#filter0_di_1951_15579)">
    <mask id="path-1-inside-1_1951_15579" fill="white">
      <path d="M2 13C2 6.92487 6.92487 2 13 2C19.0751 2 24 6.92487 24 13C24 19.0751 19.0751 24 13 24C6.92487 24 2 19.0751 2 13Z"/>
    </mask>
    <path d="M2 13C2 6.92487 6.92487 2 13 2C19.0751 2 24 6.92487 24 13C24 19.0751 19.0751 24 13 24C6.92487 24 2 19.0751 2 13Z" fill="#FFC513"/>
    <path d="M2 2H24H2ZM24 14.5C24 20.5751 19.0751 25.5 13 25.5C6.92487 25.5 2 20.5751 2 14.5V13C2 18.2467 6.92487 22.5 13 22.5C19.0751 22.5 24 18.2467 24 13V14.5ZM2 24V2V24ZM24 2V24V2Z" fill="#DBA600" mask="url(#path-1-inside-1_1951_15579)"/>
  </g>
  <g filter="url(#filter1_d_1951_15579)">
    <path d="M8 12L10.6149 15.1379C10.9976 15.5971 11.695 15.6202 12.1073 15.1874L18 9" stroke="white" stroke-width="2" stroke-linecap="round" stroke-linejoin="round"/>
  </g>
  <defs>
    <filter id="filter0_di_1951_15579" x="1" y="-0.5" width="24" height="25.5" filterUnits="userSpaceOnUse" color-interpolation-filters="sRGB">
      <feFlood flood-opacity="0" result="BackgroundImageFix"/>
      <feColorMatrix in="SourceAlpha" type="matrix" values="0 0 0 0 0 0 0 0 0 0 0 0 0 0 0 0 0 0 127 0" result="hardAlpha"/>
      <feMorphology radius="1" operator="dilate" in="SourceAlpha" result="effect1_dropShadow_1951_15579"/>
      <feOffset/>
      <feComposite in2="hardAlpha" operator="out"/>
      <feColorMatrix type="matrix" values="0 0 0 0 1 0 0 0 0 0.878431 0 0 0 0 0.521569 0 0 0 1 0"/>
      <feBlend mode="normal" in2="BackgroundImageFix" result="effect1_dropShadow_1951_15579"/>
      <feBlend mode="normal" in="SourceGraphic" in2="effect1_dropShadow_1951_15579" result="shape"/>
      <feColorMatrix in="SourceAlpha" type="matrix" values="0 0 0 0 0 0 0 0 0 0 0 0 0 0 0 0 0 0 127 0" result="hardAlpha"/>
      <feOffset dy="-2.5"/>
      <feGaussianBlur stdDeviation="1.5"/>
      <feComposite in2="hardAlpha" operator="arithmetic" k2="-1" k3="1"/>
      <feColorMatrix type="matrix" values="0 0 0 0 0.858824 0 0 0 0 0.65098 0 0 0 0 0 0 0 0 1 0"/>
      <feBlend mode="normal" in2="shape" result="effect2_innerShadow_1951_15579"/>
    </filter>
    <filter id="filter1_d_1951_15579" x="3" y="6" width="20" height="16.498" filterUnits="userSpaceOnUse" color-interpolation-filters="sRGB">
      <feFlood flood-opacity="0" result="BackgroundImageFix"/>
      <feColorMatrix in="SourceAlpha" type="matrix" values="0 0 0 0 0 0 0 0 0 0 0 0 0 0 0 0 0 0 127 0" result="hardAlpha"/>
      <feOffset dy="2"/>
      <feGaussianBlur stdDeviation="2"/>
      <feComposite in2="hardAlpha" operator="out"/>
      <feColorMatrix type="matrix" values="0 0 0 0 0 0 0 0 0 0 0 0 0 0 0 0 0 0 0.5 0"/>
      <feBlend mode="normal" in2="BackgroundImageFix" result="effect1_dropShadow_1951_15579"/>
      <feBlend mode="normal" in="SourceGraphic" in2="effect1_dropShadow_1951_15579" result="shape"/>
    </filter>
  </defs>
</svg>