<svg xmlns="http://www.w3.org/2000/svg" width="102" height="98" viewBox="0 0 102 98" fill="none">
  <path d="M84.9652 2.90622C81.0752 -0.863778 74.2952 -0.853778 70.4352 2.92622L61.2652 11.8862L49.9252 22.9162H26.3552C25.3052 22.9162 24.2752 23.2262 23.4052 23.8162C22.5452 24.4062 21.8852 25.2362 21.5252 26.2062L0.98523 81.2062C0.30523 83.0262 0.76523 85.0762 2.17523 86.4462L12.4552 96.4462C13.1452 97.1162 14.0252 97.5862 14.9752 97.7962C15.9352 98.0062 16.9252 97.9362 17.8452 97.6062L74.3752 77.6062C75.3652 77.2562 76.2252 76.6162 76.8252 75.7762C77.4252 74.9362 77.7552 73.9362 77.7552 72.9062V49.9762L89.1052 38.9362L98.3152 29.9462C100.255 28.0562 101.325 25.5362 101.325 22.8662C101.325 20.1962 100.255 17.6762 98.3052 15.7962L84.9752 2.88622L84.9652 2.90622ZM68.9852 44.3762C68.5052 44.8362 68.1252 45.3862 67.8652 45.9962C67.6052 46.6062 67.4752 47.2562 67.4752 47.9062V69.4062L19.9452 86.2162L43.9452 62.8662C44.0752 62.8662 44.2152 62.9062 44.3452 62.9062C45.8652 62.9062 47.3552 62.4662 48.6252 61.6462C49.8952 60.8262 50.8852 59.6462 51.4652 58.2762C52.0452 56.9062 52.2052 55.3962 51.9052 53.9462C51.6052 52.4962 50.8752 51.1562 49.7952 50.1062C48.7152 49.0562 47.3452 48.3462 45.8452 48.0562C44.3452 47.7662 42.7952 47.9162 41.3952 48.4862C39.9852 49.0562 38.7852 50.0162 37.9352 51.2462C37.0852 52.4762 36.6352 53.9262 36.6352 55.4162C36.6352 55.5462 36.6752 55.6762 36.6752 55.8062L12.6752 79.1562L29.9552 32.9162H52.0552C53.4252 32.9162 54.7252 32.3962 55.6852 31.4562L64.8952 22.4862L78.1852 35.4162L68.9752 44.3862L68.9852 44.3762ZM85.4552 28.3362L72.1652 15.4062L77.7052 9.98622L91.0352 22.8862L85.4552 28.3262V28.3362Z" fill="white"/>
</svg>