<svg xmlns="http://www.w3.org/2000/svg" width="29" height="29" viewBox="0 0 29 29" fill="none">
  <path d="M28.8067 5.8C28.7571 5.586 28.6984 5.37578 28.6309 5.16933C28.1318 3.64067 27.1547 2.328 25.876 1.40822C25.876 1.40822 25.876 1.408 25.8755 1.408C25.2017 0.922889 24.444 0.547111 23.6284 0.306444C23.6282 0.306444 23.6282 0.306222 23.628 0.306222C22.9535 0.106889 22.2393 0 21.5002 0C19.5261 0 17.7301 0.762667 16.391 2.00933L16.3875 2.01267L6.80005 11.6C6.80005 11.6 2.4898 15.9173 2.39091 16.0093L2.38735 16.0127L2.01268 16.3873L2.00935 16.3909C1.71824 16.7036 1.45357 17.0411 1.21912 17.4C0.448226 18.5784 0 19.9869 0 21.5C0 22.0847 0.0668894 22.6538 0.193557 23.2C0.219335 23.3116 0.24778 23.4222 0.278447 23.5318C0.278447 23.532 0.278447 23.532 0.278447 23.5322C0.527337 24.4189 0.93534 25.2391 1.46979 25.9602C2.38624 27.1976 3.67447 28.1427 5.16915 28.6307C5.90271 28.8704 6.68627 29 7.49984 29H21.4999C25.0575 29 28.0364 26.5233 28.8064 23.2C28.9331 22.6538 29 22.0847 29 21.5V7.5C29 6.91533 28.9331 6.34622 28.8064 5.8H28.8067ZM21.4235 17.4C21.1726 19.6742 19.2448 21.4429 16.9041 21.4429C16.2183 21.4429 15.5679 21.2911 14.985 21.0193C14.6577 20.8667 14.3514 20.6762 14.0723 20.4536C13.9381 20.3467 13.8101 20.2322 13.689 20.1111C12.9777 19.4 12.5012 18.4542 12.3848 17.4C12.3665 17.2347 12.3572 17.0664 12.3572 16.896C12.3572 16.548 12.3963 16.2091 12.4705 15.8833C12.8557 14.1896 14.1866 12.8551 15.8788 12.4651C16.2083 12.3893 16.5515 12.3491 16.9041 12.3491C18.1597 12.3491 19.2964 12.858 20.1193 13.6809C20.2424 13.804 20.3584 13.9342 20.4666 14.0707H20.4668C20.6893 14.3507 20.8793 14.6576 21.0315 14.9856C21.3008 15.5664 21.4511 16.2136 21.4511 16.896C21.4511 17.0664 21.4417 17.2347 21.4235 17.4Z" fill="url(#paint0_linear_1364_1317)"/>
  <defs>
    <linearGradient id="paint0_linear_1364_1317" x1="14.5001" y1="10.9198" x2="14.5001" y2="29.3531" gradientUnits="userSpaceOnUse">
      <stop offset="0.37" stop-color="#FFC513"/>
      <stop offset="0.54" stop-color="#FFC011"/>
      <stop offset="0.74" stop-color="#FFB20B"/>
      <stop offset="0.95" stop-color="#FF9C01"/>
      <stop offset="0.98" stop-color="#FF9900"/>
    </linearGradient>
  </defs>
</svg>