<svg xmlns="http://www.w3.org/2000/svg" width="64" height="32" viewBox="0 0 64 32" fill="none">
  <g clip-path="url(#clip0_720_1244)">
    <path d="M17.2011 2.58006L2.57548 17.1C-2.92629 22.5621 0.970407 31.9003 8.75016 31.9003H24.0512C28.255 31.9003 31.663 28.5169 31.663 24.3435V8.5264C31.663 1.03399 22.5383 -2.71856 17.202 2.58006H17.2011ZM18.436 23.4105C14.1325 23.4105 11.9774 18.2448 15.0204 15.2246C18.0633 12.2036 23.2658 14.3432 23.2658 18.6156C23.2658 21.2641 21.1029 23.4113 18.4352 23.4113L18.436 23.4105Z" fill="#C1C1C1"/>
    <path d="M56.1381 16.7392C55.7271 16.3311 55.7271 15.6698 56.1381 15.2617L62.7239 8.7235C64.4211 7.03858 64.4211 4.30629 62.7239 2.62137L61.3568 1.26412C59.6596 -0.420807 56.9074 -0.420807 55.2102 1.26412L48.6245 7.8023C48.4189 8.00635 48.1494 8.10795 47.8799 8.10795V4.80415C47.8799 2.15061 45.7137 0 43.0408 0H41.55C38.8772 0 36.7109 2.15061 36.7109 4.80415V27.1959C36.7109 29.8494 38.8772 32 41.55 32H43.0408C45.7137 32 47.8799 29.8494 47.8799 27.1959V23.892C48.1494 23.892 48.4189 23.9937 48.6245 24.1977L55.2102 30.7359C56.9074 32.4208 59.6596 32.4208 61.3568 30.7359L62.7239 29.3786C64.4211 27.6937 64.4211 24.9614 62.7239 23.2765L56.1381 16.7383V16.7392Z" fill="#C1C1C1"/>
  </g>
  <defs>
    <clipPath id="clip0_720_1244">
      <rect width="64" height="32" fill="white"/>
    </clipPath>
  </defs>
</svg>