<svg xmlns="http://www.w3.org/2000/svg" width="26" height="26" viewBox="0 0 26 26" fill="none">
  <path d="M13 0C20.1797 0 26 5.8203 26 13C26 20.1797 20.1797 26 13 26C5.8203 26 0 20.1797 0 13C0 5.8203 5.8203 0 13 0ZM19.1484 4C18.2856 3.99819 17.4338 4.19813 16.6621 4.58398C15.8905 4.96983 15.2203 5.5314 14.7041 6.22266H12.4814C11.9652 5.53134 11.2942 4.96984 10.5225 4.58398C9.75086 4.19824 8.89976 3.99821 8.03711 4C7.90711 3.99997 7.77959 4.03465 7.66699 4.09961C7.55444 4.16457 7.46053 4.2576 7.39551 4.37012C7.01207 5.03162 6.76935 5.76562 6.68359 6.52539C6.59786 7.28523 6.67105 8.05478 6.89746 8.78516C6.43983 9.58391 6.1948 10.4867 6.18555 11.4072V12.1484C6.18717 13.4015 6.64167 14.6117 7.46582 15.5557C8.29012 16.4996 9.42839 17.1137 10.6699 17.2842C10.1632 17.9327 9.8882 18.7326 9.88867 19.5557V20.2959H7.66699C7.07773 20.2959 6.51243 20.0621 6.0957 19.6455C5.67899 19.2288 5.44437 18.6635 5.44434 18.0742C5.44434 17.5878 5.34824 17.1056 5.16211 16.6562C4.97599 16.2071 4.70315 15.7989 4.35938 15.4551C4.01552 15.1113 3.60743 14.8384 3.1582 14.6523C2.70899 14.4663 2.22743 14.3702 1.74121 14.3701C1.54482 14.3701 1.3557 14.4481 1.2168 14.5869C1.07788 14.7258 1 14.9149 1 15.1113C1.00006 15.3076 1.07802 15.4959 1.2168 15.6348C1.35571 15.7737 1.54475 15.8516 1.74121 15.8516C2.33041 15.8517 2.89586 16.0863 3.3125 16.5029C3.72906 16.9196 3.96289 17.485 3.96289 18.0742C3.96293 19.0565 4.35331 19.9988 5.04785 20.6934C5.74241 21.3878 6.68482 21.7773 7.66699 21.7773H9.88867V23.2588C9.88867 23.4552 9.96662 23.6443 10.1055 23.7832C10.2444 23.9221 10.4334 24 10.6299 24H16.5557C16.752 24 16.9402 23.922 17.0791 23.7832C17.218 23.6443 17.2959 23.4552 17.2959 23.2588V19.5557C17.2964 18.7325 17.0215 17.9328 16.5146 17.2842C17.7564 17.1138 18.8944 16.4997 19.7188 15.5557C20.5431 14.6117 20.9984 13.4017 21 12.1484V11.4072C20.991 10.4866 20.7456 9.5836 20.2871 8.78516C20.5139 8.0549 20.5866 7.28524 20.501 6.52539C20.4154 5.76562 20.1735 5.03157 19.79 4.37012C19.725 4.25757 19.6311 4.1646 19.5186 4.09961C19.406 4.03464 19.2784 4.00002 19.1484 4Z" fill="#CACACA"/>
</svg>