<svg xmlns="http://www.w3.org/2000/svg" width="46" height="46" viewBox="0 0 46 46" fill="none">
  <path d="M42.6875 24.5C43.5159 24.5 44.1875 23.8284 44.1875 23C44.1875 22.1716 43.5159 21.5 42.6875 21.5V24.5ZM42.5 23C42.5 33.7696 33.7696 42.5 23 42.5V45.5C35.4264 45.5 45.5 35.4264 45.5 23H42.5ZM23 42.5C12.2304 42.5 3.5 33.7696 3.5 23H0.5C0.5 35.4264 10.5736 45.5 23 45.5V42.5ZM3.5 23C3.5 12.2304 12.2304 3.5 23 3.5V0.5C10.5736 0.5 0.5 10.5736 0.5 23H3.5ZM23 3.5C33.7696 3.5 42.5 12.2304 42.5 23H45.5C45.5 10.5736 35.4264 0.5 23 0.5V3.5ZM23 42.5C22.2278 42.5 21.3738 42.1486 20.4664 41.2713C19.5517 40.387 18.6595 39.035 17.8777 37.248C16.316 33.6784 15.3125 28.6421 15.3125 23H12.3125C12.3125 28.9558 13.3657 34.4196 15.1292 38.4505C16.01 40.4637 17.0975 42.1871 18.3812 43.4281C19.6721 44.6762 21.2352 45.5 23 45.5V42.5ZM15.3125 23C15.3125 17.3579 16.316 12.3216 17.8777 8.75199C18.6595 6.96496 19.5517 5.61298 20.4664 4.72871C21.3738 3.85141 22.2278 3.5 23 3.5V0.5C21.2352 0.5 19.6721 1.32384 18.3812 2.57186C17.0975 3.8129 16.01 5.5363 15.1292 7.54953C13.3657 11.5804 12.3125 17.0442 12.3125 23H15.3125ZM23 45.5C24.7648 45.5 26.3279 44.6762 27.6188 43.4281C28.9025 42.1871 29.99 40.4637 30.8708 38.4505C32.6343 34.4196 33.6875 28.9558 33.6875 23H30.6875C30.6875 28.6421 29.684 33.6784 28.1223 37.248C27.3405 39.035 26.4483 40.387 25.5336 41.2713C24.6262 42.1486 23.7722 42.5 23 42.5V45.5ZM33.6875 23C33.6875 17.0442 32.6343 11.5804 30.8708 7.54953C29.99 5.5363 28.9025 3.8129 27.6188 2.57186C26.3279 1.32384 24.7648 0.5 23 0.5V3.5C23.7722 3.5 24.6262 3.85141 25.5336 4.72871C26.4483 5.61298 27.3405 6.96496 28.1223 8.75199C29.684 12.3216 30.6875 17.3579 30.6875 23H33.6875ZM2 24.5L42.6875 24.5V21.5L2 21.5L2 24.5Z" fill="#FFEFBB"/>
</svg>