<svg xmlns="http://www.w3.org/2000/svg" width="106" height="98" viewBox="0 0 106 98" fill="none">
  <path d="M95.2188 0.389648H10.7788C4.94875 0.389648 0.21875 4.74965 0.21875 10.1096V97.6096L28.3687 78.1696H95.2188C101.039 78.1696 105.779 73.8096 105.779 68.4496V10.1096C105.779 4.74965 101.049 0.389648 95.2188 0.389648ZM95.2188 68.4496H24.8487L10.7688 78.1696V10.1096H95.2087V68.4397L95.2188 68.4496Z" fill="white"/>
  <path d="M68.8295 48.9996C74.6595 48.9996 79.3895 44.6496 79.3895 39.2796C79.3895 33.9096 74.6595 29.5596 68.8295 29.5596C62.9995 29.5596 58.2695 33.9096 58.2695 39.2796C58.2695 44.6496 62.9995 48.9996 68.8295 48.9996Z" fill="white"/>
  <path d="M37.1616 48.9996C42.9916 48.9996 47.7216 44.6496 47.7216 39.2796C47.7216 33.9096 42.9916 29.5596 37.1616 29.5596C31.3316 29.5596 26.6016 33.9096 26.6016 39.2796C26.6016 44.6496 31.3316 48.9996 37.1616 48.9996Z" fill="white"/>
</svg>