<svg xmlns="http://www.w3.org/2000/svg" width="192" height="187" viewBox="0 0 192 187" fill="none">
  <path d="M190.72 37.4758C190.392 36.0996 190.003 34.7476 189.556 33.4199C186.252 23.5889 179.783 15.147 171.317 9.23175C171.317 9.23175 171.317 9.23032 171.314 9.23032C166.853 6.11051 161.836 3.69383 156.436 2.14608C156.435 2.14608 156.435 2.14465 156.433 2.14465C151.968 0.862709 147.239 0.175293 142.346 0.175293C129.277 0.175293 117.386 5.0801 108.52 13.0976L108.496 13.119L45.021 74.7764C45.021 74.7764 16.4842 102.542 15.8295 103.133L15.8059 103.155L13.3253 105.564L13.3033 105.587C11.3759 107.598 9.62361 109.769 8.07142 112.077C2.96756 119.656 0 128.714 0 138.445C0 142.205 0.442854 145.865 1.28148 149.377C1.45215 150.095 1.64047 150.807 1.84351 151.511C1.84351 151.513 1.84351 151.513 1.84351 151.514C3.49134 157.216 6.1926 162.491 9.73102 167.129C15.7986 175.086 24.3275 181.164 34.2233 184.303C39.08 185.845 44.2677 186.678 49.6541 186.678H142.344C165.898 186.678 185.621 170.75 190.719 149.377C191.557 145.865 192 142.205 192 138.445V48.4087C192 44.6487 191.557 40.9887 190.719 37.4758H190.72ZM141.838 112.077C140.177 126.703 127.414 138.077 111.917 138.077C107.377 138.077 103.07 137.101 99.2111 135.353C97.0439 134.371 95.0165 133.147 93.1685 131.715C92.2799 131.027 91.4324 130.291 90.6306 129.512C85.921 124.939 82.7666 118.857 81.9957 112.077C81.875 111.014 81.8132 109.932 81.8132 108.836C81.8132 106.598 82.0722 104.418 82.5636 102.323C85.1133 91.4301 93.9248 82.8481 105.129 80.34C107.31 79.8527 109.582 79.594 111.917 79.594C120.23 79.594 127.755 82.8667 133.203 88.1588C134.018 88.9506 134.787 89.788 135.503 90.6655H135.504C136.977 92.4663 138.235 94.4399 139.243 96.5493C141.026 100.285 142.021 104.447 142.021 108.836C142.021 109.932 141.959 111.014 141.838 112.077Z" fill="url(#paint0_linear_1226_3301)"/>
  <defs>
    <linearGradient id="paint0_linear_1226_3301" x1="96.0007" y1="70.4018" x2="96.0007" y2="188.949" gradientUnits="userSpaceOnUse">
      <stop offset="0.37" stop-color="#FFC513"/>
      <stop offset="0.54" stop-color="#FFC011"/>
      <stop offset="0.74" stop-color="#FFB20B"/>
      <stop offset="0.95" stop-color="#FF9C01"/>
      <stop offset="0.98" stop-color="#FF9900"/>
    </linearGradient>
  </defs>
</svg>