<svg width="128" height="73" viewBox="0 0 128 73" fill="none" xmlns="http://www.w3.org/2000/svg">
<path d="M2.34149 19.1004C2.34149 17.7999 1.29314 16.7455 0 16.7455V0C10.4889 0 18.9919 8.55154 18.9919 19.1004V53.8996C18.9919 55.2001 20.0402 56.2545 21.3333 56.2545C22.6265 56.2545 23.6748 55.2001 23.6748 53.8996V19.1004C23.6748 8.55154 32.1778 0 42.6668 0C53.1556 0 61.6585 8.55154 61.6585 19.1004V53.8996C61.6585 55.2001 62.707 56.2545 64 56.2545C65.293 56.2545 66.3415 55.2001 66.3415 53.8996V19.1004C66.3415 8.55154 74.8444 0 85.3332 0C95.8224 0 104.325 8.55154 104.325 19.1004V53.8996C104.325 55.2001 105.373 56.2545 106.667 56.2545C107.96 56.2545 109.008 55.2001 109.008 53.8996V19.1004C109.008 8.55154 117.511 0 128 0V16.7455C126.707 16.7455 125.658 17.7999 125.658 19.1004V53.8996C125.658 64.4484 117.156 73 106.667 73C96.1776 73 87.6747 64.4484 87.6747 53.8996V19.1004C87.6747 17.7999 86.6266 16.7455 85.3332 16.7455C84.0402 16.7455 82.9916 17.7999 82.9916 19.1004V53.8996C82.9916 64.4484 74.4888 73 64 73C53.5112 73 45.0084 64.4484 45.0084 53.8996V19.1004C45.0084 17.7999 43.9598 16.7455 42.6668 16.7455C41.3734 16.7455 40.3253 17.7999 40.3253 19.1004V53.8996C40.3253 64.4484 31.8222 73 21.3333 73C10.8444 73 2.34149 64.4484 2.34149 53.8996V19.1004Z" fill="#FFC513"/>
</svg>
