<svg xmlns="http://www.w3.org/2000/svg" width="77" height="44" viewBox="0 0 77 44" fill="none">
  <path d="M1.40855 11.5126C1.40855 10.7287 0.777903 10.0932 0 10.0932V0C6.30974 0 11.4248 5.15435 11.4248 11.5126V32.4874C11.4248 33.2713 12.0554 33.9068 12.8333 33.9068C13.6113 33.9068 14.2419 33.2713 14.2419 32.4874V11.5126C14.2419 5.15435 19.3569 0 25.6668 0C31.9764 0 37.0914 5.15435 37.0914 11.5126V32.4874C37.0914 33.2713 37.7222 33.9068 38.5 33.9068C39.2778 33.9068 39.9086 33.2713 39.9086 32.4874V11.5126C39.9086 5.15435 45.0236 0 51.3332 0C57.6432 0 62.7582 5.15435 62.7582 11.5126V32.4874C62.7582 33.2713 63.3887 33.9068 64.1668 33.9068C64.9446 33.9068 65.5753 33.2713 65.5753 32.4874V11.5126C65.5753 5.15435 70.6903 0 77 0V10.0932C76.2222 10.0932 75.5914 10.7287 75.5914 11.5126V32.4874C75.5914 38.8456 70.4764 44 64.1668 44C57.8568 44 52.7418 38.8456 52.7418 32.4874V11.5126C52.7418 10.7287 52.1113 10.0932 51.3332 10.0932C50.5554 10.0932 49.9247 10.7287 49.9247 11.5126V32.4874C49.9247 38.8456 44.8097 44 38.5 44C32.1903 44 27.0753 38.8456 27.0753 32.4874V11.5126C27.0753 10.7287 26.4446 10.0932 25.6668 10.0932C24.8887 10.0932 24.2582 10.7287 24.2582 11.5126V32.4874C24.2582 38.8456 19.1431 44 12.8333 44C6.52358 44 1.40855 38.8456 1.40855 32.4874V11.5126Z" fill="#FFC513"/>
</svg>